<?xml version="1.0" encoding="UTF-8"?>
<svg width="512" height="512" version="1.1" viewBox="0 0 135.47 135.47" xml:space="preserve" xmlns="http://www.w3.org/2000/svg"><circle cx="67.733" cy="67.733" r="67.733" fill="#0f1a0e" stroke-width=".24756"/><path d="m62.309 122.49c-0.58483-0.20889-1.3059-0.66854-1.6023-1.0214-0.69294-0.82486-0.60064-1.3107 0.81373-4.2834 0.59847-1.2578 1.0881-2.4043 1.0881-2.5476 0-0.14337 0.14597-0.52753 0.32437-0.85374 1.0773-1.9697 2.3903-7.151 3.1799-12.548 0.95868-6.5526 0.55876-16.053-0.93118-22.122l-0.30176-1.229-1.2994 0.05967c-0.71464 0.03283-1.8119 0.2107-2.4384 0.39529-1.4671 0.43231-6.1801 0.84473-9.6635 0.84562-4.9612 0.0014-8.776-0.5175-12.276-1.6694-0.69064-0.22728-1.4272-0.41643-1.6367-0.42034-0.20958-0.0039-0.57167-0.15474-0.80466-0.33518-0.23299-0.18044-0.60908-0.32807-0.83578-0.32807-0.41532 0-3.7166-1.5877-5.2315-2.5161-4.575-2.8036-9.5217-7.9338-13.087-13.572-1.0332-1.6342-1.742-2.9688-3.3767-6.3584-0.17517-0.36323-0.37247-1.1271-0.43845-1.6975-0.11508-0.99492-0.08122-1.0753 0.83397-1.9791 1.9167-1.8928 6.4572-4.6531 9.1632-5.5704 2.8217-0.95659 3.6374-1.1324 6.4138-1.3822 5.4778-0.49297 11.572 0.25761 16.584 2.0427 0.36009 0.12822 0.96445 0.32766 1.3431 0.44317 0.94615 0.28867 5.0608 2.4664 6.5776 3.4812 1.2521 0.83772 3.5624 2.5989 5.1605 3.9337 0.47305 0.39514 1.7497 1.5936 2.837 2.6631 2.2212 2.185 2.166 2.1835 2.9361 0.07972 0.22763-0.62185 0.7556-1.8848 1.1733-2.8065 0.41767-0.92174 0.82457-1.8267 0.90423-2.0111 0.07967-0.18434 0.26374-0.5369 0.40906-0.78345 0.14532-0.24655 0.6486-1.1515 1.1184-2.0111 0.46978-0.85954 0.92255-1.6131 1.0062-1.6745 0.08359-0.06147 0.31389-0.41339 0.51175-0.78208 1.7272-3.2185 5.734-7.7452 9.6307-10.88 2.6706-2.1486 2.5023-2.0228 3.1644-2.3652 0.30007-0.1552 0.9384-0.52198 1.4185-0.81508 2.355-1.4377 5.6033-2.8169 7.6958-3.2676 0.51184-0.11024 1.1011-0.29358 1.3094-0.40743 0.20833-0.11385 0.96802-0.27533 1.6882-0.35884 0.72018-0.0835 2.0813-0.29479 3.0248-0.46951 1.0345-0.19157 3.1583-0.31767 5.3506-0.31767 3.5155 0 3.6616 0.01839 4.4361 0.55724 1.0786 0.75048 1.1479 1.3551 0.96052 8.3808-0.1459 5.4708-0.23063 6.4302-0.80861 9.1615-0.76963 3.6371-2.6696 8.5411-3.8159 9.8495-0.17009 0.19403-0.30909 0.4213-0.30909 0.50506 0 0.23257-1.4902 2.3634-2.4909 3.5618-1.9493 2.3343-3.6637 4.0129-7.5508 7.3932-0.89334 0.77684-2.1397 1.7061-2.2884 1.7061-0.07605 0-0.49059 0.27652-0.92124 0.61449-1.9818 1.5553-5.1834 3.1615-9.0083 4.5194-1.2729 0.45189-4.5806 1.1395-6.547 1.3611-1.0202 0.11493-1.9777 0.25602-2.1278 0.31352-0.3313 0.12697-0.36467 1.7598-0.04833 2.365 0.12343 0.2362 0.36163 1.1597 0.52927 2.0522 0.39098 2.0816 0.7237 3.5726 1.1122 4.9839 0.17055 0.61963 0.40313 1.7257 0.51684 2.458 0.11371 0.73226 0.30622 1.7336 0.42781 2.2252 1.9191 7.7595 2.2247 20.278 0.64913 26.591-1.1294 4.5252-2.2625 6.1091-4.8317 6.7543-2.0845 0.5235-8.2429 0.57912-9.6209 0.087z" fill="#e6e6e6" stroke-width=".22082"/></svg>
